<svg xmlns="http://www.w3.org/2000/svg" width="760" height="430" viewBox="0 0 760 430">
<rect width="100%" height="100%" fill="white"/>
<text x="380.0" y="32" text-anchor="middle" font-family="Arial" font-size="22">Native-speaker assumption</text>
<line x1="70" y1="340" x2="720" y2="340" stroke="black"/>
<line x1="70" y1="80" x2="70" y2="340" stroke="black"/>
<rect x="120" y="90.0" width="44" height="250.0" fill="#4c78a8"/>
<rect x="168" y="340.0" width="44" height="0.0" fill="#f58518"/>
<text x="165" y="370" text-anchor="middle" font-family="Arial" font-size="13" transform="rotate(15 165,370)">hope_that_S_good</text>
<rect x="320" y="340.0" width="44" height="0.0" fill="#4c78a8"/>
<rect x="368" y="90.0" width="44" height="250.0" fill="#f58518"/>
<text x="365" y="370" text-anchor="middle" font-family="Arial" font-size="13" transform="rotate(15 365,370)">wonder_what_S</text>
<rect x="520" y="90.0" width="44" height="250.0" fill="#4c78a8"/>
<rect x="568" y="340.0" width="44" height="0.0" fill="#f58518"/>
<text x="565" y="370" text-anchor="middle" font-family="Arial" font-size="13" transform="rotate(15 565,370)">hope_what_S</text>
<rect x="520" y="65" width="18" height="18" fill="#4c78a8"/><text x="545" y="80" font-family="Arial" font-size="14">desire_positive_S</text>
<rect x="520" y="90" width="18" height="18" fill="#f58518"/><text x="545" y="105" font-family="Arial" font-size="14">uncertain_about_S</text>
</svg>